<svg xmlns="http://www.w3.org/2000/svg" viewBox="0 0 512 512">
  <defs>
    <style>
      .cls-1 {
        fill: #f5a114;
      }

      .cls-2 {
        fill: #fcd543;
      }

      .cls-3 {
        fill: #fff;
      }
    </style>
  </defs>
  <g id="_01" data-name="01" transform="translate(885 -197)">
    <path id="Path_1" data-name="Path 1" class="cls-1" d="M475.429,512H36.571A36.573,36.573,0,0,1,0,475.429V36.571A36.573,36.573,0,0,1,36.571,0H475.428A36.573,36.573,0,0,1,512,36.571V475.428A36.573,36.573,0,0,1,475.429,512" transform="translate(-885 197)"/>
    <g id="Group_1" data-name="Group 1" transform="translate(-885 197)">
      <path id="Path_2" data-name="Path 2" class="cls-2" d="M59.426,457.143a4.576,4.576,0,0,1-4.571-4.571V173.714a9.143,9.143,0,1,0-18.286,0V452.571a22.862,22.862,0,0,0,22.857,22.857H384a9.143,9.143,0,0,0,0-18.286H59.426Z"/>
      <path id="Path_3" data-name="Path 3" class="cls-2" d="M54.857,59.43a4.57,4.57,0,0,1,4.571-4.571H452.571a4.57,4.57,0,0,1,4.571,4.571V452.573a4.576,4.576,0,0,1-4.571,4.571h-32a9.143,9.143,0,0,0,0,18.286h32a22.862,22.862,0,0,0,22.857-22.857V59.43a22.856,22.856,0,0,0-22.857-22.857H59.429A22.856,22.856,0,0,0,36.572,59.43v41.143a9.143,9.143,0,1,0,18.286,0V59.43Z"/>
      <path id="Path_4" data-name="Path 4" class="cls-2" d="M54.857,137.143a9.143,9.143,0,1,0-9.143,9.143,9.146,9.146,0,0,0,9.143-9.143"/>
    </g>
    <g id="Group_2" data-name="Group 2" transform="translate(-885 197)">
      <path id="Path_5" data-name="Path 5" class="cls-3" d="M182.857,146.286a36.571,36.571,0,1,0-36.571,36.571,36.572,36.572,0,0,0,36.571-36.571"/>
      <path id="Path_6" data-name="Path 6" class="cls-3" d="M402.286,365.714a36.571,36.571,0,1,0-36.571,36.571,36.572,36.572,0,0,0,36.571-36.571"/>
    </g>
  </g>
</svg>
