<svg xmlns="http://www.w3.org/2000/svg" viewBox="0 0 512 512">
  <defs>
    <style>
      .cls-1 {
        fill: #1d70dd;
      }

      .cls-2 {
        fill: #79b3ff;
      }

      .cls-3 {
        fill: #fff;
      }
    </style>
  </defs>
  <g id="_02" data-name="02" transform="translate(885 494)">
    <path id="Path_7" data-name="Path 7" class="cls-1" d="M475.429,512H36.571A36.573,36.573,0,0,1,0,475.429V36.571A36.573,36.573,0,0,1,36.571,0H475.428A36.573,36.573,0,0,1,512,36.571V475.428A36.573,36.573,0,0,1,475.429,512" transform="translate(-885 -494)"/>
    <g id="Group_3" data-name="Group 3" transform="translate(-885 -494)">
      <path id="Path_8" data-name="Path 8" class="cls-2" d="M59.426,457.143a4.576,4.576,0,0,1-4.571-4.571V173.714a9.143,9.143,0,1,0-18.286,0V452.571a22.862,22.862,0,0,0,22.857,22.857H384a9.143,9.143,0,0,0,0-18.286H59.426Z"/>
      <path id="Path_9" data-name="Path 9" class="cls-2" d="M54.857,59.43a4.57,4.57,0,0,1,4.571-4.571H452.571a4.57,4.57,0,0,1,4.571,4.571V452.573a4.576,4.576,0,0,1-4.571,4.571h-32a9.143,9.143,0,0,0,0,18.286h32a22.862,22.862,0,0,0,22.857-22.857V59.43a22.856,22.856,0,0,0-22.857-22.857H59.429A22.856,22.856,0,0,0,36.572,59.43v41.143a9.143,9.143,0,1,0,18.286,0V59.43Z"/>
      <path id="Path_10" data-name="Path 10" class="cls-2" d="M54.857,137.143a9.143,9.143,0,1,0-9.143,9.143,9.146,9.146,0,0,0,9.143-9.143"/>
    </g>
    <g id="Group_4" data-name="Group 4" transform="translate(-885 -494)">
      <path id="Path_11" data-name="Path 11" class="cls-3" d="M182.857,146.286a36.571,36.571,0,1,0-36.571,36.571,36.572,36.572,0,0,0,36.571-36.571"/>
      <path id="Path_12" data-name="Path 12" class="cls-3" d="M402.286,365.714a36.571,36.571,0,1,0-36.571,36.571,36.572,36.572,0,0,0,36.571-36.571"/>
      <path id="Path_13" data-name="Path 13" class="cls-3" d="M292.571,256A36.571,36.571,0,1,0,256,292.571,36.572,36.572,0,0,0,292.571,256"/>
    </g>
  </g>
</svg>
