<svg xmlns="http://www.w3.org/2000/svg" viewBox="0 0 512 512">
  <defs>
    <style>
      .cls-1 {
        fill: #f5a114;
      }

      .cls-2 {
        fill: #fff;
      }

      .cls-3 {
        fill: #fcd543;
      }
    </style>
  </defs>
  <g id="_04" data-name="04" transform="translate(885 1876)">
    <path id="Path_22" data-name="Path 22" class="cls-1" d="M475.429,512H36.571A36.573,36.573,0,0,1,0,475.429V36.571A36.573,36.573,0,0,1,36.571,0H475.428A36.573,36.573,0,0,1,512,36.571V475.428A36.573,36.573,0,0,1,475.429,512" transform="translate(-885 -1876)"/>
    <g id="Group_7" data-name="Group 7" transform="translate(-885 -1876)">
      <path id="Path_23" data-name="Path 23" class="cls-2" d="M292.571,256A36.571,36.571,0,1,0,256,292.571,36.572,36.572,0,0,0,292.571,256"/>
      <path id="Path_24" data-name="Path 24" class="cls-2" d="M182.857,365.714a36.571,36.571,0,1,0-36.571,36.571,36.572,36.572,0,0,0,36.571-36.571"/>
      <path id="Path_25" data-name="Path 25" class="cls-2" d="M182.857,146.286a36.571,36.571,0,1,0-36.571,36.571,36.572,36.572,0,0,0,36.571-36.571"/>
      <path id="Path_26" data-name="Path 26" class="cls-2" d="M402.286,365.714a36.571,36.571,0,1,0-36.571,36.571,36.572,36.572,0,0,0,36.571-36.571"/>
      <path id="Path_27" data-name="Path 27" class="cls-2" d="M402.286,146.286a36.571,36.571,0,1,0-36.571,36.571,36.572,36.572,0,0,0,36.571-36.571"/>
    </g>
    <g id="Group_8" data-name="Group 8" transform="translate(-885 -1876)">
      <path id="Path_28" data-name="Path 28" class="cls-3" d="M59.426,457.143a4.576,4.576,0,0,1-4.571-4.571V173.714a9.143,9.143,0,1,0-18.286,0V452.571a22.862,22.862,0,0,0,22.857,22.857H384a9.143,9.143,0,0,0,0-18.286H59.426Z"/>
      <path id="Path_29" data-name="Path 29" class="cls-3" d="M54.857,59.43a4.57,4.57,0,0,1,4.571-4.571H452.571a4.57,4.57,0,0,1,4.571,4.571V452.573a4.576,4.576,0,0,1-4.571,4.571h-32a9.143,9.143,0,0,0,0,18.286h32a22.862,22.862,0,0,0,22.857-22.857V59.43a22.856,22.856,0,0,0-22.857-22.857H59.429A22.856,22.856,0,0,0,36.572,59.43v41.143a9.143,9.143,0,1,0,18.286,0V59.43Z"/>
      <path id="Path_30" data-name="Path 30" class="cls-3" d="M54.857,137.143a9.143,9.143,0,1,0-9.143,9.143,9.146,9.146,0,0,0,9.143-9.143"/>
    </g>
  </g>
</svg>
