<svg xmlns="http://www.w3.org/2000/svg" viewBox="0 0 512 512">
  <defs>
    <style>
      .cls-1 {
        fill: #40bf25;
      }

      .cls-2 {
        fill: #fff;
      }

      .cls-3 {
        fill: #58e33b;
      }
    </style>
  </defs>
  <g id="_05" data-name="05" transform="translate(885 2567)">
    <path id="Path_31" data-name="Path 31" class="cls-1" d="M475.429,512H36.571A36.573,36.573,0,0,1,0,475.429V36.571A36.573,36.573,0,0,1,36.571,0H475.428A36.573,36.573,0,0,1,512,36.571V475.428A36.573,36.573,0,0,1,475.429,512" transform="translate(-885 -2567)"/>
    <g id="Group_9" data-name="Group 9" transform="translate(-885 -2567)">
      <path id="Path_32" data-name="Path 32" class="cls-2" d="M402.286,256a36.572,36.572,0,1,0-36.572,36.571A36.572,36.572,0,0,0,402.286,256"/>
      <path id="Path_33" data-name="Path 33" class="cls-2" d="M182.857,256a36.571,36.571,0,1,0-36.572,36.571A36.572,36.572,0,0,0,182.857,256"/>
      <path id="Path_34" data-name="Path 34" class="cls-2" d="M182.857,365.714a36.571,36.571,0,1,0-36.571,36.571,36.572,36.572,0,0,0,36.571-36.571"/>
      <path id="Path_35" data-name="Path 35" class="cls-2" d="M182.857,146.286a36.571,36.571,0,1,0-36.571,36.571,36.572,36.572,0,0,0,36.571-36.571"/>
      <path id="Path_36" data-name="Path 36" class="cls-2" d="M402.286,365.714a36.571,36.571,0,1,0-36.571,36.571,36.572,36.572,0,0,0,36.571-36.571"/>
      <path id="Path_37" data-name="Path 37" class="cls-2" d="M402.286,146.286a36.571,36.571,0,1,0-36.571,36.571,36.572,36.572,0,0,0,36.571-36.571"/>
    </g>
    <g id="Group_10" data-name="Group 10" transform="translate(-885 -2567)">
      <path id="Path_38" data-name="Path 38" class="cls-3" d="M59.426,457.143a4.576,4.576,0,0,1-4.571-4.571V173.714a9.143,9.143,0,1,0-18.286,0V452.571a22.862,22.862,0,0,0,22.857,22.857H384a9.143,9.143,0,0,0,0-18.286H59.426Z"/>
      <path id="Path_39" data-name="Path 39" class="cls-3" d="M54.857,59.43a4.57,4.57,0,0,1,4.571-4.571H452.571a4.57,4.57,0,0,1,4.571,4.571V452.573a4.576,4.576,0,0,1-4.571,4.571h-32a9.143,9.143,0,0,0,0,18.286h32a22.862,22.862,0,0,0,22.857-22.857V59.43a22.856,22.856,0,0,0-22.857-22.857H59.429A22.856,22.856,0,0,0,36.572,59.43v41.143a9.143,9.143,0,1,0,18.286,0V59.43Z"/>
      <path id="Path_40" data-name="Path 40" class="cls-3" d="M54.857,137.143a9.143,9.143,0,1,0-9.143,9.143,9.146,9.146,0,0,0,9.143-9.143"/>
    </g>
  </g>
</svg>
